<?xml version="1.0" encoding="UTF-8" standalone="no"?>
<!-- Created with Inkscape (http://www.inkscape.org/) -->

<svg
   xmlns:dc="http://purl.org/dc/elements/1.1/"
   xmlns:cc="http://creativecommons.org/ns#"
   xmlns:rdf="http://www.w3.org/1999/02/22-rdf-syntax-ns#"
   xmlns:svg="http://www.w3.org/2000/svg"
   xmlns="http://www.w3.org/2000/svg"
   xmlns:sodipodi="http://sodipodi.sourceforge.net/DTD/sodipodi-0.dtd"
   xmlns:inkscape="http://www.inkscape.org/namespaces/inkscape"
   width="700mm"
   height="700mm"
   viewBox="0 0 700 700"
   version="1.1"
   id="svg4749"
   inkscape:export-filename="C:\Users\alex\sites\crizal-logo-0.png"
   inkscape:export-xdpi="148.6263"
   inkscape:export-ydpi="148.6263"
   inkscape:version="0.92.3 (2405546, 2018-03-11)"
   sodipodi:docname="crizal-logo.svg">
  <defs
     id="defs4743" />
  <sodipodi:namedview
     id="base"
     pagecolor="#ffffff"
     bordercolor="#666666"
     borderopacity="1.0"
     inkscape:pageopacity="0.0"
     inkscape:pageshadow="2"
     inkscape:zoom="0.12374369"
     inkscape:cx="-112.63173"
     inkscape:cy="1031.6204"
     inkscape:document-units="mm"
     inkscape:current-layer="layer1"
     showgrid="false"
     inkscape:window-width="1600"
     inkscape:window-height="838"
     inkscape:window-x="-8"
     inkscape:window-y="-8"
     inkscape:window-maximized="1" />
  <metadata
     id="metadata4746">
    <rdf:RDF>
      <cc:Work
         rdf:about="">
        <dc:format>image/svg+xml</dc:format>
        <dc:type
           rdf:resource="http://purl.org/dc/dcmitype/StillImage" />
        <dc:title></dc:title>
      </cc:Work>
    </rdf:RDF>
  </metadata>
  <g
     inkscape:label="Camada 1"
     inkscape:groupmode="layer"
     id="layer1"
     transform="translate(0,403)">
    <g
       id="g3788"
       transform="matrix(4.7744163,0,0,-4.7744163,109.18326,-79.584424)"
       style="fill:#3c4650;fill-opacity:1"
       inkscape:export-xdpi="20.329872"
       inkscape:export-ydpi="20.329872">
      <path
         d="m 0,0 c 1.288,2.22 3.078,4.011 5.334,5.335 2.256,1.362 4.727,2.042 7.414,2.042 4.475,0 7.913,-1.718 10.241,-5.157 L 19.551,-0.358 C 17.94,2.113 15.577,3.33 12.497,3.33 9.74,3.33 7.411,2.328 5.443,0.286 3.472,-1.754 2.505,-4.046 2.505,-6.66 c 0,-2.293 0.753,-4.155 2.292,-5.622 1.54,-1.469 3.546,-2.184 6.017,-2.184 2.542,0 4.799,0.967 6.767,2.935 l 2.793,-2.899 c -2.72,-2.722 -6.016,-4.083 -9.847,-4.083 -3.616,0 -6.624,1.074 -8.952,3.223 -2.328,2.184 -3.473,4.94 -3.473,8.271 0,2.472 0.644,4.834 1.898,7.019"
         style="fill:#3c4650;fill-opacity:1;fill-rule:nonzero;stroke:none"
         id="path3790"
         inkscape:connector-curvature="0" />
    </g>
    <g
       id="g3792"
       transform="matrix(4.7744163,0,0,-4.7744163,212.64482,6.4128534)"
       style="fill:#3c4650;fill-opacity:1"
       inkscape:export-xdpi="20.329872"
       inkscape:export-ydpi="20.329872">
      <path
         d="M 0,0 3.689,18.048 H 8.021 L 7.448,15.506 c 1.325,1.934 3.152,2.9 5.515,2.9 0.394,0 0.967,-0.035 1.683,-0.142 l -0.823,-4.047 c -0.538,0.108 -1.147,0.179 -1.899,0.179 -2.971,0 -5.12,-2.15 -5.8,-5.444 L 4.333,0 Z"
         style="fill:#3c4650;fill-opacity:1;fill-rule:nonzero;stroke:none"
         id="path3794"
         inkscape:connector-curvature="0" />
    </g>
    <g
       id="g3796"
       transform="matrix(4.7744163,0,0,-4.7744163,298.15612,-100.61619)"
       style="fill:#3c4650;fill-opacity:1"
       inkscape:export-xdpi="20.329872"
       inkscape:export-ydpi="20.329872">
      <path
         d="m 0,0 c 0,1.468 1.288,2.829 2.828,2.829 1.397,0 2.399,-1.004 2.399,-2.292 0,-1.468 -1.253,-2.795 -2.864,-2.795 C 0.966,-2.258 0,-1.325 0,0 m -3.151,-17.51 2.685,13.141 H 3.867 L 1.253,-17.117 c -0.108,-0.65 -0.391,-1.933 0.931,-1.933 0.358,0 0.609,0.034 0.751,0.071 l -0.751,-3.475 c -0.466,-0.178 -1.111,-0.249 -1.899,-0.249 -2.256,0 -3.688,1.431 -3.688,3.438 0,0.322 0.072,0.931 0.252,1.755"
         style="fill:#3c4650;fill-opacity:1;fill-rule:nonzero;stroke:none"
         id="path3798"
         inkscape:connector-curvature="0" />
    </g>
    <g
       id="g3800"
       transform="matrix(4.7744163,0,0,-4.7744163,317.82719,6.4128534)"
       style="fill:#3c4650;fill-opacity:1"
       inkscape:export-xdpi="20.329872"
       inkscape:export-ydpi="20.329872">
      <path
         d="M 0,0 0.537,2.651 13.069,14.217 H 3.975 l 0.787,3.831 H 19.946 L 19.301,15.075 7.234,3.831 H 17.475 L 16.687,0 Z"
         style="fill:#3c4650;fill-opacity:1;fill-rule:nonzero;stroke:none"
         id="path3802"
         inkscape:connector-curvature="0" />
    </g>
    <g
       id="g3804"
       transform="matrix(4.7744163,0,0,-4.7744163,456.14335,-10.338715)"
       style="fill:#3c4650;fill-opacity:1"
       inkscape:export-xdpi="20.329872"
       inkscape:export-ydpi="20.329872">
      <path
         d="m 0,0 c 1.754,0 3.258,0.609 4.511,1.827 1.253,1.217 1.898,2.793 1.898,4.692 0,2.685 -2.113,4.547 -5.263,4.547 -1.719,0 -3.187,-0.645 -4.406,-1.898 C -4.476,7.913 -5.086,6.446 -5.086,4.799 -5.086,1.969 -3.045,0 0,0 m -6.303,11.782 c 2.077,2.113 4.512,3.151 7.341,3.151 3.295,0 5.658,-1.325 6.338,-2.758 l 0.502,2.364 H 12.14 L 9.525,1.754 c -0.094,-0.466 -0.467,-1.896 1.003,-1.896 0.25,0 0.536,0.035 0.859,0.071 L 10.671,-3.58 c -0.466,-0.18 -1.039,-0.251 -1.79,-0.251 -2.063,0 -3.07,1.234 -3.332,2.471 -1.396,-1.682 -3.508,-2.508 -6.409,-2.508 -2.47,0 -4.547,0.753 -6.158,2.292 -1.613,1.542 -2.4,3.545 -2.4,6.018 0,2.829 1.039,5.263 3.115,7.34"
         style="fill:#3c4650;fill-opacity:1;fill-rule:nonzero;stroke:none"
         id="path3806"
         inkscape:connector-curvature="0" />
    </g>
    <g
       id="g3808"
       transform="matrix(4.7744163,0,0,-4.7744163,523.55484,-22.308123)"
       style="fill:#3c4650;fill-opacity:1"
       inkscape:export-xdpi="20.329872"
       inkscape:export-ydpi="20.329872">
      <path
         d="M 0,0 3.831,18.943 H 8.165 L 4.333,0.144 C 4.061,-1.03 4.035,-2.578 6.27,-2.578 c 0.304,0 0.574,0.041 0.963,0.107 L 6.481,-6.231 C 6.088,-6.375 5.479,-6.446 4.655,-6.446 c -3.008,0 -4.905,1.791 -4.905,4.477 0,0.393 0.071,1.075 0.25,1.969"
         style="fill:#3c4650;fill-opacity:1;fill-rule:nonzero;stroke:none"
         id="path3810"
         inkscape:connector-curvature="0" />
    </g>
    <g
       id="g3812"
       transform="matrix(4.7744163,0,0,-4.7744163,583.61693,-5.5561516)"
       style="fill:#3c4650;fill-opacity:1"
       inkscape:export-xdpi="20.329872"
       inkscape:export-ydpi="20.329872">
      <path
         d="m 0,0 h 0.543 c 0.272,0 0.472,0.237 0.472,0.525 0,0.271 -0.2,0.488 -0.472,0.488 H 0 Z m -0.616,-1.721 v 3.314 h 1.178 c 0.633,0 1.067,-0.434 1.067,-1.03 0,-0.436 -0.179,-0.762 -0.543,-0.962 L 1.885,-1.721 H 1.159 L 0.435,-0.507 H 0 v -1.214 z m 1.069,3.966 c -1.359,0 -2.337,-0.976 -2.337,-2.372 0,-1.375 0.978,-2.337 2.337,-2.337 1.358,0 2.354,0.962 2.354,2.337 0,1.396 -0.996,2.372 -2.354,2.372 m 0,-5.253 c -0.816,0 -1.522,0.273 -2.082,0.816 -0.563,0.543 -0.834,1.233 -0.834,2.065 0,0.834 0.271,1.522 0.834,2.066 0.56,0.543 1.266,0.813 2.082,0.813 0.816,0 1.521,-0.27 2.083,-0.813 0.579,-0.544 0.87,-1.232 0.87,-2.066 0,-0.832 -0.291,-1.522 -0.87,-2.065 C 1.974,-2.735 1.269,-3.008 0.453,-3.008"
         style="fill:#3c4650;fill-opacity:1;fill-rule:nonzero;stroke:none"
         id="path3814"
         inkscape:connector-curvature="0" />
    </g>
  </g>
</svg>
